<?xml version="1.0" encoding="UTF-8"?>
<!DOCTYPE svg PUBLIC "-//W3C//DTD SVG 1.1//EN" "http://www.w3.org/Graphics/SVG/1.1/DTD/svg11.dtd">
<!-- Creator: CorelDRAW 2019 (64-Bit) -->
<svg xmlns="http://www.w3.org/2000/svg" xml:space="preserve" width="37.195mm" height="12.383mm" version="1.1" style="shape-rendering:geometricPrecision; text-rendering:geometricPrecision; image-rendering:optimizeQuality; fill-rule:evenodd; clip-rule:evenodd"
viewBox="0 0 3719.5 1238.3"
 xmlns:xlink="http://www.w3.org/1999/xlink"
 xmlns:xodm="http://www.corel.com/coreldraw/odm/2003">
 <defs>
  <style type="text/css">
   <![CDATA[
    .fil0 {fill:white}
   ]]>
  </style>
 </defs>
 <g id="Слой_x0020_1">
  <metadata id="CorelCorpID_0Corel-Layer"/>
  <polygon class="fil0" points="582.57,9.24 446.5,432.7 619.41,392.52 207.98,1227.03 448.15,544.93 278.52,594.93 "/>
  <path class="fil0" d="M508.78 835.87c0,0 12.28,195.84 -17.21,348.29l68.03 0c0,0 25.86,-194.23 15.4,-300.75l21.49 0 0 300.75 68.86 0 0 -348.29 -156.57 0z"/>
  <polygon class="fil0" points="854.04,835.87 854.04,886.65 808.94,886.65 808.94,1184.12 740.12,1184.12 740.12,886.65 695.06,886.65 695.06,835.87 "/>
  <polygon class="fil0" points="1017.7,997.28 1059.48,1184.12 997.2,1184.12 955.42,997.28 997.2,835.87 1059.48,835.87 "/>
  <rect class="fil0" x="886.57" y="835.87" width="68.85" height="348.25"/>
  <polygon class="fil0" points="2214.99,864.94 2276.18,1179.24 2169.92,1179.24 2108.72,864.94 2169.92,613.79 2276.18,613.79 "/>
  <rect class="fil0" x="1997.27" y="613.79" width="110.63" height="565.45"/>
  <polygon class="fil0" points="2577.72,613.79 2577.72,694.92 2503.42,694.92 2503.42,1179.24 2392.83,1179.24 2392.83,694.92 2318.53,694.92 2318.53,613.79 "/>
  <polygon class="fil0" points="1244.68,694.92 1244.68,824.37 1341.38,824.37 1341.38,905.51 1244.68,905.51 1244.68,1098.1 1341.38,1098.1 1341.38,1179.24 1134.04,1179.24 1134.04,613.79 1341.38,613.79 1341.38,694.92 "/>
  <polygon class="fil0" points="1839.92,694.92 1839.92,824.41 1936.63,824.41 1936.63,905.51 1839.92,905.51 1839.92,1098.1 1936.63,1098.1 1936.63,1179.24 1729.29,1179.24 1729.29,613.79 1936.63,613.79 1936.63,694.92 "/>
  <path class="fil0" d="M1669.17 613.79l0 565.45 -110.63 0 0 -484.32 -31.4 0c0.43,28.12 0.87,89.14 -0.56,210.59 -2.16,189.04 -26.21,273.72 -26.21,273.72l-109.29 0.01c21.88,-79.24 29.54,-248.6 31.44,-282.73 1.9,-34.17 0,-201.58 0,-201.58l0 -81.14 246.65 0z"/>
  <path class="fil0" d="M2802.23 613.79l-162.53 0 0 565.45 110.63 0 0 -219.11 51.9 0c56.4,0 102.16,-45.71 102.16,-102.16l0 -142.03c0,-56.44 -45.76,-102.15 -102.16,-102.15zm-9.3 244.18c0,16.01 -12.97,28.98 -28.93,28.98l-13.67 0 0 -199.94 13.67 0c15.96,0 28.93,12.93 28.93,28.93l0 142.03z"/>
  <polygon class="fil0" points="3239.83,613.79 3089.02,1179.24 2986.35,1179.24 3041.45,972.54 2943.7,613.79 3060.65,613.79 3093.82,821.52 3137.11,613.79 "/>
  <polygon class="fil0" points="3716.19,613.79 3716.19,1179.24 3615.59,1179.24 3615.59,731.6 3545.74,1179.24 3450.72,1179.24 3384.03,758.41 3384.03,1179.24 3293.38,1179.24 3293.38,613.79 3459.46,613.79 3503.96,1025.09 3558.59,613.79 "/>
  <path class="fil0" d="M892.49 576.25c0,73.35 -17.69,142.55 -49.04,203.62l-59.6 0c35.98,-59.47 56.74,-129.19 56.74,-203.62 0,-152.94 -87.49,-285.8 -215.12,-351.19l18.55 -48.88c147.22,72.88 248.47,224.65 248.47,400.07z"/>
  <path class="fil0" d="M51.89 576.25c0,143.07 76.59,268.62 190.9,337.69l-19.03 49.22c-133.72,-77.03 -223.77,-221.44 -223.77,-386.91 0,-245.23 197.83,-444.22 442.58,-446.17l-18.9 52.51c-207,11.72 -371.78,183.81 -371.78,393.66z"/>
 </g>
</svg>
