<?xml version="1.0" standalone="no"?>
<!DOCTYPE svg PUBLIC "-//W3C//DTD SVG 20010904//EN"
 "http://www.w3.org/TR/2001/REC-SVG-20010904/DTD/svg10.dtd">
<svg version="1.0" xmlns="http://www.w3.org/2000/svg"
 width="1312.000000pt" height="1312.000000pt" viewBox="0 0 1312.000000 1312.000000"
 preserveAspectRatio="xMidYMid meet">
<metadata>
Created by potrace 1.11, written by Peter Selinger 2001-2013
</metadata>
<g transform="translate(0.000000,1312.000000) scale(0.100000,-0.100000)"
fill="#000000" stroke="none">
<path d="M7947 13002 c-32 -64 -62 -124 -67 -132 -5 -8 -11 -22 -14 -30 -4 -8
-29 -58 -57 -110 -28 -52 -76 -144 -107 -205 -30 -60 -59 -111 -64 -113 -4 -2
-8 -11 -8 -21 0 -9 -4 -21 -9 -27 -5 -5 -51 -90 -101 -189 -51 -99 -98 -183
-104 -187 -6 -4 -7 -8 -3 -8 5 0 -8 -30 -28 -67 -38 -71 -161 -306 -236 -453
-24 -47 -46 -87 -49 -90 -3 -3 -32 -59 -65 -125 -33 -66 -63 -121 -67 -123 -5
-2 -8 -10 -8 -17 0 -8 -13 -37 -30 -65 -16 -28 -30 -57 -30 -65 0 -7 -3 -15
-7 -17 -5 -1 -24 -34 -44 -73 -20 -38 -74 -144 -122 -235 -47 -91 -114 -221
-149 -290 -34 -69 -65 -127 -68 -130 -3 -3 -32 -57 -64 -120 -32 -63 -70 -137
-86 -165 -15 -27 -26 -53 -24 -56 2 -4 -3 -12 -11 -19 -8 -7 -15 -19 -15 -26
0 -8 -4 -14 -8 -14 -5 0 -14 -18 -21 -40 -6 -21 -15 -42 -20 -44 -5 -3 -26
-41 -47 -83 -20 -43 -42 -81 -47 -84 -5 -3 -8 -9 -8 -13 1 -3 -17 -41 -38 -84
-22 -42 -55 -106 -73 -142 -18 -36 -36 -66 -40 -68 -5 -2 -8 -12 -8 -22 0 -10
-4 -21 -8 -24 -5 -3 -31 -49 -58 -103 -26 -54 -61 -119 -76 -145 -15 -27 -24
-48 -20 -48 4 0 2 -4 -3 -8 -6 -4 -36 -56 -67 -117 -30 -60 -81 -159 -113
-220 -91 -176 -98 -190 -96 -194 2 -2 -1 -7 -6 -10 -7 -5 -58 -102 -177 -336
-23 -44 -43 -82 -46 -85 -3 -3 -32 -59 -66 -125 -121 -240 -169 -330 -179
-337 -5 -4 -6 -8 -1 -8 5 0 4 -6 -1 -12 -10 -12 -97 -178 -214 -408 -30 -58
-58 -108 -64 -112 -5 -4 -7 -8 -3 -8 4 0 -9 -27 -28 -61 -18 -33 -34 -64 -34
-69 0 -4 35 -43 78 -87 42 -45 114 -119 158 -167 l82 -86 48 15 c27 8 50 15
51 15 2 0 8 2 15 5 7 2 69 20 138 40 69 20 148 43 175 51 54 16 53 16 220 64
61 17 115 33 120 34 6 2 12 4 15 5 3 1 28 9 55 17 50 16 136 41 165 49 8 2 60
17 115 34 54 17 101 28 104 26 2 -3 10 0 17 5 6 6 20 13 30 15 11 2 29 7 42
11 27 8 28 -6 3 -61 -10 -22 -19 -43 -19 -47 -4 -19 -8 -30 -14 -48 -11 -27
-126 -354 -134 -380 -4 -14 -7 -28 -6 -32 1 -5 -2 -8 -8 -8 -5 0 -10 -8 -10
-18 0 -10 -3 -22 -7 -26 -4 -3 -8 -17 -10 -29 -2 -12 -7 -31 -12 -42 -12 -26
-112 -305 -116 -325 -2 -8 -18 -53 -35 -100 -18 -47 -33 -89 -34 -95 -3 -16
-57 -167 -73 -203 -8 -18 -15 -42 -16 -52 -1 -11 -4 -20 -7 -20 -4 0 -7 -6 -7
-12 -1 -7 -22 -71 -48 -143 -26 -71 -64 -182 -86 -245 -22 -63 -67 -191 -101
-285 -33 -93 -61 -174 -63 -180 -1 -5 -7 -23 -13 -38 -7 -16 -12 -30 -12 -32
0 -2 -5 -16 -12 -32 -6 -15 -12 -35 -14 -44 -2 -9 -9 -29 -15 -45 -7 -16 -13
-31 -14 -34 -1 -3 -4 -12 -8 -20 -12 -31 -59 -165 -61 -175 -1 -5 -4 -15 -8
-20 -3 -6 -9 -27 -13 -47 -5 -24 -11 -35 -19 -31 -6 3 -8 3 -4 -1 4 -5 -16
-72 -44 -149 -78 -222 -99 -281 -102 -292 -2 -5 -6 -17 -9 -25 -3 -8 -13 -37
-22 -65 -10 -27 -21 -59 -26 -70 -10 -24 -80 -226 -83 -240 -1 -5 -8 -21 -15
-33 -7 -13 -10 -26 -7 -29 3 -4 2 -11 -3 -17 -4 -6 -22 -51 -39 -101 -76 -221
-133 -382 -141 -400 -5 -11 -29 -78 -53 -150 -24 -71 -46 -131 -50 -133 -5 -2
-8 -11 -8 -19 0 -16 -45 -148 -102 -298 -16 -44 -31 -87 -33 -95 -8 -37 -10
-45 -15 -50 -5 -4 -17 -39 -36 -105 -2 -5 -20 -55 -40 -110 -44 -122 -151
-424 -192 -545 -3 -8 -6 -17 -7 -20 -1 -3 -5 -12 -8 -20 -4 -8 -20 -53 -36
-100 -16 -47 -54 -157 -86 -245 -31 -88 -61 -176 -67 -195 -6 -19 -15 -41 -22
-49 -6 -8 -9 -16 -7 -18 1 -2 -2 -16 -8 -31 -21 -54 -131 -373 -131 -380 0 -4
43 -7 96 -7 l96 1 24 39 c27 46 44 82 44 96 0 5 4 9 8 9 5 0 14 16 22 35 8 19
16 35 20 35 3 0 12 16 19 35 7 19 18 41 24 48 7 7 27 44 46 82 19 39 46 88 59
109 13 22 25 45 26 51 1 7 9 24 19 38 9 15 17 31 17 36 0 5 3 11 8 13 4 1 20
28 35 58 35 67 101 191 153 285 21 39 49 93 63 120 13 28 27 52 30 55 3 3 14
21 23 40 10 19 41 78 69 130 28 52 68 127 88 165 20 39 38 72 41 75 3 3 17 28
31 55 65 123 297 555 403 750 39 72 71 132 71 135 0 3 10 21 23 41 12 20 22
41 22 48 0 6 5 11 12 11 6 0 9 3 5 6 -3 3 7 27 22 52 15 26 45 81 66 122 21
41 45 83 53 93 8 9 11 17 6 17 -5 0 -4 4 2 8 5 4 18 25 28 47 11 22 22 42 25
45 4 3 19 31 34 62 15 31 32 60 37 63 6 3 10 15 10 25 0 10 3 20 8 22 7 3 52
85 109 198 15 30 30 57 33 60 3 3 20 34 39 70 18 36 46 88 61 115 15 28 42 79
61 115 19 36 36 67 39 70 3 3 18 30 33 60 72 139 103 195 110 198 4 2 5 7 2
12 -3 5 0 15 7 22 7 8 22 32 34 53 12 22 45 85 74 140 29 55 60 114 70 130 9
17 43 80 75 140 32 61 61 115 65 120 4 6 30 53 57 105 28 52 67 127 88 165 21
39 56 104 78 145 22 41 52 98 67 125 33 61 92 171 155 290 26 50 55 104 65
120 10 17 37 66 60 110 24 44 55 103 70 130 15 28 49 91 75 140 26 50 74 138
106 196 33 58 59 111 59 117 0 6 5 12 11 14 5 2 11 10 12 18 2 8 17 40 35 71
17 31 32 62 32 68 0 6 4 11 9 11 5 0 14 15 22 33 7 17 15 34 18 37 3 3 18 30
33 60 15 30 45 87 66 125 21 39 59 108 84 155 25 47 78 146 118 220 40 74 87
162 104 195 17 33 33 62 36 65 3 3 17 30 33 60 15 30 42 82 60 115 18 33 48
89 67 125 19 36 40 73 48 83 9 9 12 17 8 17 -4 0 1 12 12 28 10 15 30 50 44
77 61 119 74 140 83 147 6 4 6 8 1 8 -5 0 -3 6 3 14 11 13 96 168 129 236 9
19 20 37 25 38 4 2 7 10 7 17 0 8 7 21 16 29 8 9 12 16 8 16 -3 0 -2 6 4 13 5
6 31 53 57 102 26 50 51 94 56 100 23 24 18 30 -202 225 -41 36 -83 74 -95 85
-59 58 -95 83 -111 80 -10 -2 -18 -4 -18 -5 0 -2 -11 -4 -55 -13 -24 -5 -110
-25 -140 -32 -68 -18 -141 -35 -164 -39 -14 -3 -34 -7 -44 -10 -9 -3 -28 -8
-42 -10 -28 -6 -104 -24 -135 -31 -11 -3 -31 -7 -44 -10 -13 -2 -60 -13 -105
-24 -76 -19 -248 -59 -326 -77 -19 -4 -37 -8 -40 -9 -3 -1 -32 -7 -65 -14 -33
-7 -67 -15 -75 -18 -18 -7 -26 -9 -70 -17 -30 -5 -76 -16 -130 -31 -42 -11
-80 -17 -80 -12 0 3 5 18 12 34 6 15 12 30 13 33 7 29 30 88 38 98 5 6 6 12 2
12 -4 0 -2 7 5 15 7 8 9 15 6 15 -4 0 -1 10 6 23 6 12 13 29 14 37 2 8 7 23
13 35 5 11 14 34 19 50 6 17 23 62 37 100 15 39 28 75 29 80 2 6 8 21 13 35
25 57 156 416 156 428 0 6 4 12 9 12 4 0 7 3 6 8 -2 4 3 21 9 37 7 17 38 100
69 185 31 85 61 166 67 180 5 14 12 33 14 43 2 10 9 28 15 40 7 12 11 28 10
35 -2 6 2 12 8 12 5 0 10 8 10 19 0 10 8 36 17 57 9 22 18 42 19 47 1 4 3 9 4
12 1 3 3 8 5 13 1 4 5 14 8 22 3 8 22 60 42 115 20 55 40 109 45 120 9 22 12
30 45 120 12 33 42 117 68 187 26 70 47 131 47 137 0 6 4 11 8 11 5 0 9 6 9
13 0 6 19 62 42 122 23 61 44 115 45 120 2 6 6 17 9 25 31 83 62 166 63 170 0
3 4 14 8 25 36 92 89 233 92 245 4 19 51 148 63 175 10 21 45 116 47 125 0 3
5 16 11 30 24 57 65 176 66 188 0 6 3 12 7 12 3 0 13 23 20 50 7 28 18 50 23
50 6 0 8 3 4 6 -5 5 6 40 38 119 4 11 9 25 11 30 8 26 35 102 44 120 15 32 61
168 58 170 -169 120 -294 211 -296 217 -2 5 -9 8 -15 8 -6 0 -20 8 -31 19 -49
44 -57 38 -119 -87z"/>
<path d="M6320 11820 c0 -3 -28 -6 -63 -6 -34 -1 -91 -4 -127 -8 -36 -3 -87
-7 -115 -10 -49 -4 -111 -12 -164 -20 -14 -3 -46 -8 -71 -11 -25 -4 -54 -9
-65 -11 -11 -3 -36 -7 -55 -10 -19 -3 -42 -7 -50 -9 -8 -2 -28 -7 -45 -10 -16
-2 -66 -14 -110 -24 -44 -11 -83 -17 -87 -15 -5 3 -8 0 -8 -7 0 -7 -3 -10 -6
-6 -3 3 -23 -1 -45 -8 -22 -8 -41 -14 -44 -14 -7 -1 -58 -12 -73 -17 -7 -2
-13 -3 -15 -3 -2 0 -296 -101 -372 -128 -27 -10 -52 -21 -55 -24 -3 -3 -23
-12 -45 -19 -22 -7 -44 -16 -50 -20 -5 -4 -29 -14 -52 -23 -67 -26 -257 -120
-265 -132 -4 -5 -8 -6 -8 -1 0 5 -6 4 -12 -1 -7 -6 -38 -24 -68 -40 -127 -69
-174 -97 -275 -161 -152 -98 -181 -116 -195 -129 -8 -7 -51 -39 -95 -70 -44
-32 -85 -62 -91 -68 -6 -5 -26 -21 -44 -35 -18 -14 -41 -32 -50 -40 -10 -8
-42 -35 -71 -60 -103 -86 -155 -135 -314 -297 -147 -149 -189 -194 -244 -263
-11 -14 -29 -34 -39 -45 -48 -50 -219 -284 -311 -425 -55 -85 -105 -161 -111
-167 -6 -7 -8 -13 -5 -13 4 0 -2 -12 -13 -27 -51 -73 -273 -514 -278 -553 0
-3 -8 -23 -18 -45 -25 -56 -61 -148 -65 -167 -1 -4 -9 -25 -18 -45 -17 -41
-75 -222 -100 -313 -53 -197 -66 -249 -67 -282 0 -10 -4 -18 -9 -18 -4 0 -6
-4 -3 -9 3 -4 1 -23 -4 -41 -8 -30 -17 -76 -26 -135 -1 -11 -3 -20 -4 -20 -1
0 -3 -13 -5 -30 -1 -16 -3 -30 -5 -30 -1 0 -3 -13 -4 -30 -3 -29 -12 -99 -24
-180 -9 -63 -8 -994 1 -1055 5 -30 10 -70 12 -89 6 -43 15 -108 21 -146 3 -16
7 -43 10 -60 2 -16 6 -41 9 -55 4 -22 13 -68 20 -110 9 -48 86 -344 95 -359 5
-10 7 -21 4 -24 -3 -3 2 -19 11 -36 8 -17 13 -31 11 -31 -3 0 1 -15 9 -32 7
-18 14 -37 15 -43 8 -33 85 -243 113 -307 14 -32 23 -58 20 -58 -3 0 1 -7 8
-16 7 -9 14 -21 15 -28 1 -6 21 -51 45 -101 24 -49 43 -92 44 -95 0 -3 6 -14
12 -25 6 -11 29 -54 51 -96 53 -101 64 -121 81 -141 8 -10 11 -18 8 -18 -20 0
316 -495 413 -607 5 -7 37 -45 71 -85 109 -130 379 -416 379 -401 0 2 6 -2 14
-9 8 -7 12 -16 9 -20 -2 -5 0 -8 5 -8 5 0 26 -15 45 -33 47 -42 129 -112 242
-206 46 -37 185 -140 260 -190 44 -30 82 -57 85 -60 3 -3 16 -13 30 -20 14 -8
67 -41 119 -73 52 -32 95 -57 96 -55 2 2 34 82 146 367 19 47 34 87 35 90 0 3
6 18 12 33 7 16 12 30 12 32 0 3 -51 38 -113 78 -103 67 -310 217 -364 263
-12 11 -32 28 -45 38 -139 113 -379 349 -511 503 -48 56 -87 104 -87 107 0 3
-8 14 -18 24 -29 31 -73 86 -90 115 -9 15 -20 27 -24 27 -4 0 -8 5 -8 11 0 5
-15 30 -32 54 -56 75 -69 94 -69 102 0 5 -8 17 -18 28 -11 11 -34 46 -52 78
-19 33 -42 73 -53 90 -57 96 -148 273 -196 382 -12 28 -28 62 -36 78 -9 15
-12 27 -7 27 4 0 2 4 -5 8 -7 5 -14 17 -16 28 -3 10 -21 62 -41 114 -30 77
-72 197 -81 233 -1 4 -2 8 -4 10 -1 1 -3 10 -6 20 -2 9 -6 25 -8 35 -3 9 -5
17 -6 17 -1 0 -3 7 -5 15 -2 8 -15 59 -29 114 -14 54 -28 108 -30 120 -3 11
-10 46 -16 76 -14 68 -15 73 -34 192 -22 136 -34 244 -41 362 -3 43 -7 81 -10
84 -2 2 0 13 6 23 5 11 6 19 2 19 -10 0 -9 309 2 460 7 104 12 155 14 155 1 0
4 25 6 55 2 30 6 66 8 80 3 14 8 45 11 70 13 84 17 105 37 200 11 52 22 104
24 115 3 11 7 32 11 47 3 15 5 30 5 33 0 2 6 20 15 40 8 19 14 37 14 40 0 3 0
6 1 8 1 5 8 33 13 56 3 13 13 47 23 75 9 28 18 53 18 56 1 3 4 12 7 20 3 8 16
44 28 80 12 36 29 79 36 97 8 17 14 33 14 36 0 2 8 22 17 43 9 22 17 41 18 44
5 22 135 300 150 320 5 8 19 33 30 55 11 22 34 63 52 92 18 29 33 57 33 63 0
5 4 10 9 10 5 0 12 11 15 25 4 14 11 25 16 25 6 0 10 5 10 11 0 11 151 237
197 294 50 63 59 74 83 106 128 169 374 423 569 589 29 25 58 50 65 55 6 6 25
21 41 33 65 49 89 68 106 85 11 9 21 17 24 17 4 0 96 63 120 83 19 16 150 99
220 140 39 23 73 46 77 52 4 5 8 6 8 2 0 -5 12 0 28 11 35 24 223 119 332 167
150 66 163 72 255 105 50 18 97 35 105 38 62 22 376 113 405 117 17 2 30 5 30
6 0 2 44 10 73 12 12 1 22 4 22 7 0 3 10 7 23 8 25 3 62 10 62 12 0 1 14 3 30
5 17 1 44 5 60 8 17 4 55 9 85 13 30 3 66 7 80 9 42 5 217 22 253 24 10 1 16
5 12 10 -3 5 -1 12 5 16 6 4 8 11 5 16 -4 5 -2 9 3 9 5 0 9 6 9 13 0 6 24 75
52 152 29 77 54 147 56 155 2 8 13 40 25 70 12 30 22 60 24 67 1 7 5 16 9 19
4 4 7 14 7 23 0 13 -15 16 -90 16 -49 0 -90 -2 -90 -5z"/>
<path d="M8669 11318 c0 -2 -2 -10 -4 -18 -2 -8 -25 -73 -53 -145 -58 -150
-64 -170 -60 -171 2 0 -2 -7 -8 -15 -6 -8 -17 -32 -24 -54 -7 -22 -16 -45 -21
-50 -4 -6 -10 -23 -13 -37 -4 -26 4 -32 155 -117 87 -50 181 -106 209 -126 27
-19 52 -35 55 -35 5 0 135 -98 145 -109 3 -4 30 -25 60 -48 230 -173 449 -379
645 -607 93 -109 109 -128 196 -246 38 -52 76 -103 84 -113 8 -9 15 -20 15
-23 0 -3 18 -32 40 -64 22 -32 40 -64 40 -69 0 -6 4 -11 9 -11 4 0 19 -21 32
-47 13 -27 30 -56 38 -65 29 -37 183 -342 236 -468 15 -36 32 -76 38 -90 6
-14 11 -27 12 -30 6 -17 18 -48 27 -70 6 -14 12 -32 14 -40 1 -8 23 -75 48
-149 25 -73 48 -145 50 -160 2 -14 5 -26 6 -26 2 0 6 -15 13 -45 2 -8 6 -24
10 -35 6 -20 15 -59 23 -105 6 -36 12 -65 14 -65 1 0 3 -11 5 -25 3 -23 7 -42
18 -95 3 -11 8 -45 12 -75 4 -30 9 -62 10 -70 2 -8 6 -42 10 -75 4 -33 8 -71
10 -85 23 -166 23 -617 1 -832 -2 -18 -7 -64 -11 -103 -4 -38 -9 -72 -10 -75
-2 -3 -6 -29 -10 -59 -4 -30 -9 -63 -11 -75 -7 -37 -15 -80 -19 -106 -2 -14
-8 -40 -14 -58 -5 -18 -10 -35 -10 -37 -1 -3 -1 -6 -2 -7 0 -2 -2 -12 -4 -23
-1 -11 -6 -33 -10 -50 -3 -16 -8 -37 -9 -45 -2 -8 -6 -22 -9 -30 -3 -8 -11
-35 -17 -60 -6 -25 -15 -56 -19 -70 -5 -14 -14 -45 -22 -70 -7 -25 -15 -49
-18 -55 -3 -5 -6 -14 -7 -20 -3 -22 -107 -289 -140 -362 -56 -122 -88 -188
-94 -193 -3 -3 -6 -11 -7 -17 -2 -7 -25 -52 -52 -100 -27 -49 -57 -104 -67
-123 -11 -19 -21 -37 -24 -40 -3 -3 -28 -41 -55 -85 -27 -44 -51 -82 -55 -85
-3 -3 -22 -30 -42 -60 -20 -30 -44 -65 -55 -77 -10 -12 -36 -47 -57 -78 -22
-30 -43 -55 -48 -55 -4 0 -8 -6 -8 -14 0 -8 -8 -21 -18 -28 -10 -7 -25 -22
-33 -34 -33 -49 -134 -159 -269 -294 -143 -142 -177 -174 -274 -255 -27 -22
-57 -47 -67 -56 -10 -8 -30 -24 -44 -35 -15 -10 -32 -24 -39 -29 -6 -6 -36
-28 -66 -49 -30 -22 -56 -43 -58 -48 -2 -4 -10 -8 -18 -8 -8 0 -14 -4 -14 -10
0 -5 -6 -10 -14 -10 -8 0 -16 -4 -18 -8 -1 -4 -55 -40 -118 -80 -63 -39 -120
-75 -126 -79 -36 -27 -304 -164 -304 -156 0 4 -4 3 -8 -4 -7 -11 -95 -53 -108
-52 -3 0 -15 -6 -27 -13 -12 -8 -78 -36 -147 -62 -69 -27 -134 -53 -145 -57
-11 -5 -51 -18 -90 -29 -38 -12 -77 -24 -85 -27 -8 -3 -21 -7 -29 -9 -8 -1
-35 -9 -60 -17 -53 -18 -115 -34 -151 -41 -14 -2 -56 -11 -95 -20 -79 -18
-125 -27 -215 -42 -65 -11 -122 -19 -215 -29 -33 -3 -76 -8 -95 -11 -19 -3
-132 -7 -250 -10 -118 -3 -221 -7 -228 -9 -7 -3 -21 -24 -31 -47 -24 -55 -62
-138 -117 -257 -24 -51 -44 -95 -44 -97 0 -2 -14 -32 -30 -66 -21 -43 -27 -65
-20 -72 12 -12 670 -18 670 -7 0 3 26 7 58 8 31 0 80 4 107 7 28 4 73 9 100
12 57 6 69 7 145 18 30 5 64 10 75 13 11 2 34 6 50 8 33 5 48 8 115 24 25 5
56 12 70 14 14 3 81 19 150 37 69 18 131 33 138 33 6 0 12 4 12 9 0 4 3 7 8 6
13 -3 77 14 90 24 6 6 12 8 12 5 0 -3 44 10 98 30 53 19 111 39 129 44 18 5
45 16 60 24 15 8 31 15 35 15 3 0 28 10 55 22 26 11 53 22 58 24 18 4 169 75
285 134 159 80 184 94 192 105 5 7 8 7 8 0 0 -6 3 -5 8 1 4 6 23 19 42 29 45
23 191 116 208 132 8 7 18 11 23 8 5 -4 9 -2 9 3 0 5 21 22 48 39 39 26 212
152 247 180 6 4 33 26 60 48 71 57 91 74 154 130 189 170 389 373 487 495 27
33 52 60 57 60 4 0 7 5 7 11 0 7 6 17 14 23 7 6 50 61 95 121 45 61 89 118 97
128 7 9 14 22 14 27 0 6 5 10 11 10 5 0 7 5 4 10 -3 6 -2 10 3 10 14 0 136
195 286 455 46 82 167 322 170 340 1 5 12 33 25 60 12 28 36 86 52 130 17 44
39 101 50 127 10 25 20 55 22 65 1 10 5 23 9 28 3 6 9 27 13 48 4 20 11 37 16
37 5 0 9 11 9 24 0 14 4 37 10 51 10 26 57 203 65 244 2 12 6 25 9 29 3 5 8
31 12 58 3 27 9 53 12 58 3 5 6 22 8 37 3 28 5 37 20 104 3 17 7 46 9 65 1 19
4 35 5 35 3 0 7 27 14 95 4 36 9 83 12 105 31 242 35 712 9 960 -9 87 -17 161
-21 190 -2 17 -6 48 -9 70 -2 22 -4 40 -5 40 -2 0 -6 21 -14 75 -6 43 -14 87
-22 120 -3 14 -8 39 -11 55 -5 35 -81 343 -90 365 -7 18 -10 28 -17 55 -13 56
-118 346 -157 432 -11 24 -19 45 -19 48 0 21 -179 380 -250 500 -29 50 -58
100 -64 112 -6 13 -14 23 -18 23 -5 0 -8 5 -8 11 0 11 -172 270 -194 292 -7 7
-15 17 -17 23 -2 6 -16 26 -32 45 -15 19 -40 50 -55 70 -32 42 -98 122 -127
155 -11 12 -36 42 -55 65 -75 92 -356 367 -490 479 -29 25 -59 51 -66 58 -7 6
-17 12 -23 12 -6 0 -11 4 -11 8 0 4 -24 26 -52 47 -29 22 -58 44 -65 50 -6 5
-37 28 -69 50 -31 22 -77 55 -101 73 -24 17 -48 32 -53 32 -6 0 -10 5 -10 10
0 6 -7 10 -15 10 -8 0 -15 4 -15 9 0 5 -8 11 -17 15 -10 3 -56 31 -103 61 -47
30 -101 63 -120 73 -19 10 -64 34 -100 54 -137 75 -167 89 -171 76z"/>
</g>
</svg>
